<mxfile host="" modified="2020-06-14T21:01:22.904Z" agent="5.0 (Macintosh; Intel Mac OS X 10_15_5) AppleWebKit/537.36 (KHTML, like Gecko) Code/1.46.0 Chrome/78.0.3904.130 Electron/7.3.1 Safari/537.36" etag="WwYCZr-IJyptJw8T8ytJ" version="13.1.3">
    <diagram id="W8yYORcKkFQITVBucdOB" name="Sync">
        <mxGraphModel dx="983" dy="798" grid="1" gridSize="10" guides="1" tooltips="1" connect="1" arrows="1" fold="1" page="1" pageScale="1" pageWidth="827" pageHeight="1169" math="0" shadow="0" extFonts="Monaco^https://fonts.googleapis.com/css?family=Monaco|Open Sans^https://fonts.googleapis.com/css?family=Open+Sans">
            <root>
                <mxCell id="0"/>
                <mxCell id="1" parent="0"/>
                <mxCell id="28" value="Servidor" style="aspect=fixed;pointerEvents=1;shadow=0;dashed=0;html=1;strokeColor=#6c8ebf;labelPosition=center;verticalLabelPosition=bottom;verticalAlign=top;align=center;fillColor=#dae8fc;shape=mxgraph.mscae.enterprise.web_server;fontFamily=Open Sans;" vertex="1" parent="1">
                    <mxGeometry x="540" y="190" width="78" height="102.63" as="geometry"/>
                </mxCell>
                <mxCell id="29" value="Thread Pool" style="rounded=1;whiteSpace=wrap;html=1;fillColor=#fff2cc;strokeColor=#d6b656;fontFamily=Open Sans;FType=g;labelPosition=center;verticalLabelPosition=bottom;align=center;verticalAlign=top;" vertex="1" parent="1">
                    <mxGeometry x="602.53" y="30" width="133.18" height="100" as="geometry"/>
                </mxCell>
                <mxCell id="31" value="T1" style="ellipse;whiteSpace=wrap;html=1;aspect=fixed;strokeWidth=1;fontFamily=Open Sans;labelPosition=center;verticalLabelPosition=bottom;align=center;verticalAlign=top;fillColor=#e1d5e7;strokeColor=#9673a6;" vertex="1" parent="1">
                    <mxGeometry x="615.71" y="80" width="20" height="20" as="geometry"/>
                </mxCell>
                <mxCell id="35" value="T2" style="ellipse;whiteSpace=wrap;html=1;aspect=fixed;strokeColor=#9673a6;strokeWidth=1;fillColor=#e1d5e7;fontFamily=Open Sans;labelPosition=center;verticalLabelPosition=bottom;align=center;verticalAlign=top;" vertex="1" parent="1">
                    <mxGeometry x="645.71" y="40" width="20" height="20" as="geometry"/>
                </mxCell>
                <mxCell id="39" value="Cliente X" style="shape=mxgraph.cisco.people.androgenous_person;html=1;dashed=0;fillColor=#d5e8d4;strokeColor=#82b366;strokeWidth=1;verticalLabelPosition=bottom;verticalAlign=top;fontFamily=Open Sans;" vertex="1" parent="1">
                    <mxGeometry x="50" y="202.32" width="78" height="78" as="geometry"/>
                </mxCell>
                <mxCell id="40" style="edgeStyle=orthogonalEdgeStyle;rounded=0;orthogonalLoop=1;jettySize=auto;html=1;fillColor=#f5f5f5;strokeColor=#666666;fontFamily=Open Sans;" edge="1" parent="1">
                    <mxGeometry relative="1" as="geometry">
                        <mxPoint x="150" y="220" as="sourcePoint"/>
                        <mxPoint x="510" y="220" as="targetPoint"/>
                    </mxGeometry>
                </mxCell>
                <mxCell id="150" value="DB" style="verticalLabelPosition=bottom;html=1;verticalAlign=top;align=center;strokeColor=#6c8ebf;fillColor=#dae8fc;shape=mxgraph.azure.sql_database;fontFamily=Open Sans;FType=g;" vertex="1" parent="1">
                    <mxGeometry x="730" y="207.48" width="48.34" height="67.68" as="geometry"/>
                </mxCell>
                <mxCell id="151" value="Servidor" style="aspect=fixed;pointerEvents=1;shadow=0;dashed=0;html=1;strokeColor=#6c8ebf;labelPosition=center;verticalLabelPosition=bottom;verticalAlign=top;align=center;fillColor=#dae8fc;shape=mxgraph.mscae.enterprise.web_server;fontFamily=Open Sans;" vertex="1" parent="1">
                    <mxGeometry x="539" y="520" width="78" height="102.63" as="geometry"/>
                </mxCell>
                <mxCell id="152" value="Thread Pool" style="rounded=1;whiteSpace=wrap;html=1;fillColor=#fff2cc;strokeColor=#d6b656;fontFamily=Open Sans;FType=g;labelPosition=center;verticalLabelPosition=bottom;align=center;verticalAlign=top;" vertex="1" parent="1">
                    <mxGeometry x="601.53" y="360" width="133.18" height="100" as="geometry"/>
                </mxCell>
                <mxCell id="153" value="T1" style="ellipse;whiteSpace=wrap;html=1;aspect=fixed;strokeWidth=1;fontFamily=Open Sans;labelPosition=center;verticalLabelPosition=top;align=center;verticalAlign=bottom;fillColor=#e1d5e7;strokeColor=#9673a6;" vertex="1" parent="1">
                    <mxGeometry x="460" y="499.9999999999999" width="20" height="20" as="geometry"/>
                </mxCell>
                <mxCell id="154" value="T2" style="ellipse;whiteSpace=wrap;html=1;aspect=fixed;strokeColor=#9673a6;strokeWidth=1;fillColor=#e1d5e7;fontFamily=Open Sans;labelPosition=center;verticalLabelPosition=bottom;align=center;verticalAlign=top;" vertex="1" parent="1">
                    <mxGeometry x="644.71" y="370" width="20" height="20" as="geometry"/>
                </mxCell>
                <mxCell id="155" value="Cliente X" style="shape=mxgraph.cisco.people.androgenous_person;html=1;dashed=0;fillColor=#d5e8d4;strokeColor=#82b366;strokeWidth=1;verticalLabelPosition=bottom;verticalAlign=top;fontFamily=Open Sans;" vertex="1" parent="1">
                    <mxGeometry x="49" y="532.3199999999999" width="78" height="78" as="geometry"/>
                </mxCell>
                <mxCell id="156" style="edgeStyle=orthogonalEdgeStyle;rounded=0;orthogonalLoop=1;jettySize=auto;html=1;fillColor=#e1d5e7;strokeColor=#9673a6;fontFamily=Open Sans;" edge="1" parent="1">
                    <mxGeometry relative="1" as="geometry">
                        <mxPoint x="149" y="530" as="sourcePoint"/>
                        <mxPoint x="509" y="530" as="targetPoint"/>
                    </mxGeometry>
                </mxCell>
                <mxCell id="161" value="REQ 1" style="edgeLabel;html=1;align=center;verticalAlign=middle;resizable=0;points=[];fontFamily=Open Sans;fontColor=#1A1A1A;" vertex="1" connectable="0" parent="156">
                    <mxGeometry x="-0.1111" y="-1" relative="1" as="geometry">
                        <mxPoint as="offset"/>
                    </mxGeometry>
                </mxCell>
                <mxCell id="159" value="DB" style="verticalLabelPosition=bottom;html=1;verticalAlign=top;align=center;strokeColor=#6c8ebf;fillColor=#dae8fc;shape=mxgraph.azure.sql_database;fontFamily=Open Sans;FType=g;" vertex="1" parent="1">
                    <mxGeometry x="729" y="537.48" width="48.34" height="67.68" as="geometry"/>
                </mxCell>
                <mxCell id="176" style="edgeStyle=orthogonalEdgeStyle;rounded=0;orthogonalLoop=1;jettySize=auto;html=1;fillColor=#e1d5e7;strokeColor=#9673a6;fontFamily=Open Sans;" edge="1" parent="1">
                    <mxGeometry relative="1" as="geometry">
                        <mxPoint x="630" y="560" as="sourcePoint"/>
                        <mxPoint x="723.12" y="560" as="targetPoint"/>
                    </mxGeometry>
                </mxCell>
                <mxCell id="177" value="REQ 1" style="edgeLabel;html=1;align=center;verticalAlign=middle;resizable=0;points=[];fontFamily=Open Sans;fontColor=#1A1A1A;" vertex="1" connectable="0" parent="176">
                    <mxGeometry x="-0.1111" y="-1" relative="1" as="geometry">
                        <mxPoint as="offset"/>
                    </mxGeometry>
                </mxCell>
                <mxCell id="178" value="Servidor" style="aspect=fixed;pointerEvents=1;shadow=0;dashed=0;html=1;strokeColor=#6c8ebf;labelPosition=center;verticalLabelPosition=bottom;verticalAlign=top;align=center;fillColor=#dae8fc;shape=mxgraph.mscae.enterprise.web_server;fontFamily=Open Sans;" vertex="1" parent="1">
                    <mxGeometry x="539" y="880" width="78" height="102.63" as="geometry"/>
                </mxCell>
                <mxCell id="179" value="Thread Pool" style="rounded=1;whiteSpace=wrap;html=1;fillColor=#fff2cc;strokeColor=#d6b656;fontFamily=Open Sans;FType=g;labelPosition=center;verticalLabelPosition=bottom;align=center;verticalAlign=top;" vertex="1" parent="1">
                    <mxGeometry x="601.53" y="720" width="133.18" height="100" as="geometry"/>
                </mxCell>
                <mxCell id="180" value="T1" style="ellipse;whiteSpace=wrap;html=1;aspect=fixed;strokeWidth=1;fontFamily=Open Sans;labelPosition=center;verticalLabelPosition=top;align=center;verticalAlign=bottom;fillColor=#e1d5e7;strokeColor=#9673a6;" vertex="1" parent="1">
                    <mxGeometry x="460" y="858.9999999999999" width="20" height="20" as="geometry"/>
                </mxCell>
                <mxCell id="181" value="T2" style="ellipse;whiteSpace=wrap;html=1;aspect=fixed;strokeColor=#9673a6;strokeWidth=1;fillColor=#e1d5e7;fontFamily=Open Sans;labelPosition=center;verticalLabelPosition=bottom;align=center;verticalAlign=top;" vertex="1" parent="1">
                    <mxGeometry x="461" y="909.3199999999999" width="20" height="20" as="geometry"/>
                </mxCell>
                <mxCell id="182" value="Cliente X" style="shape=mxgraph.cisco.people.androgenous_person;html=1;dashed=0;fillColor=#d5e8d4;strokeColor=#82b366;strokeWidth=1;verticalLabelPosition=bottom;verticalAlign=top;fontFamily=Open Sans;" vertex="1" parent="1">
                    <mxGeometry x="49" y="892.3199999999999" width="78" height="78" as="geometry"/>
                </mxCell>
                <mxCell id="183" style="edgeStyle=orthogonalEdgeStyle;rounded=0;orthogonalLoop=1;jettySize=auto;html=1;fillColor=#e1d5e7;strokeColor=#9673a6;fontFamily=Open Sans;" edge="1" parent="1">
                    <mxGeometry relative="1" as="geometry">
                        <mxPoint x="149" y="888.9999999999998" as="sourcePoint"/>
                        <mxPoint x="509" y="888.9999999999998" as="targetPoint"/>
                    </mxGeometry>
                </mxCell>
                <mxCell id="184" value="REQ 1" style="edgeLabel;html=1;align=center;verticalAlign=middle;resizable=0;points=[];fontFamily=Open Sans;fontColor=#1A1A1A;" vertex="1" connectable="0" parent="183">
                    <mxGeometry x="-0.1111" y="-1" relative="1" as="geometry">
                        <mxPoint as="offset"/>
                    </mxGeometry>
                </mxCell>
                <mxCell id="185" value="DB" style="verticalLabelPosition=bottom;html=1;verticalAlign=top;align=center;strokeColor=#6c8ebf;fillColor=#dae8fc;shape=mxgraph.azure.sql_database;fontFamily=Open Sans;FType=g;" vertex="1" parent="1">
                    <mxGeometry x="729" y="897.48" width="48.34" height="67.68" as="geometry"/>
                </mxCell>
                <mxCell id="186" style="edgeStyle=orthogonalEdgeStyle;rounded=0;orthogonalLoop=1;jettySize=auto;html=1;fillColor=#e1d5e7;strokeColor=#9673a6;fontFamily=Open Sans;" edge="1" parent="1">
                    <mxGeometry relative="1" as="geometry">
                        <mxPoint x="630" y="919.9999999999998" as="sourcePoint"/>
                        <mxPoint x="723.1199999999999" y="919.9999999999998" as="targetPoint"/>
                    </mxGeometry>
                </mxCell>
                <mxCell id="187" value="REQ 1" style="edgeLabel;html=1;align=center;verticalAlign=middle;resizable=0;points=[];fontFamily=Open Sans;fontColor=#1A1A1A;" vertex="1" connectable="0" parent="186">
                    <mxGeometry x="-0.1111" y="-1" relative="1" as="geometry">
                        <mxPoint as="offset"/>
                    </mxGeometry>
                </mxCell>
                <mxCell id="188" style="edgeStyle=orthogonalEdgeStyle;rounded=0;orthogonalLoop=1;jettySize=auto;html=1;fillColor=#e1d5e7;strokeColor=#9673a6;fontFamily=Open Sans;" edge="1" parent="1">
                    <mxGeometry relative="1" as="geometry">
                        <mxPoint x="150" y="950" as="sourcePoint"/>
                        <mxPoint x="510" y="950" as="targetPoint"/>
                    </mxGeometry>
                </mxCell>
                <mxCell id="189" value="REQ 2" style="edgeLabel;html=1;align=center;verticalAlign=middle;resizable=0;points=[];fontFamily=Open Sans;fontColor=#1A1A1A;" vertex="1" connectable="0" parent="188">
                    <mxGeometry x="-0.1111" y="-1" relative="1" as="geometry">
                        <mxPoint as="offset"/>
                    </mxGeometry>
                </mxCell>
                <mxCell id="191" style="edgeStyle=orthogonalEdgeStyle;rounded=0;orthogonalLoop=1;jettySize=auto;html=1;fillColor=#e1d5e7;strokeColor=#9673a6;fontFamily=Open Sans;" edge="1" parent="1">
                    <mxGeometry relative="1" as="geometry">
                        <mxPoint x="630" y="950" as="sourcePoint"/>
                        <mxPoint x="723.1199999999999" y="950" as="targetPoint"/>
                    </mxGeometry>
                </mxCell>
                <mxCell id="192" value="REQ 2" style="edgeLabel;html=1;align=center;verticalAlign=middle;resizable=0;points=[];fontFamily=Open Sans;fontColor=#1A1A1A;" vertex="1" connectable="0" parent="191">
                    <mxGeometry x="-0.1111" y="-1" relative="1" as="geometry">
                        <mxPoint as="offset"/>
                    </mxGeometry>
                </mxCell>
                <mxCell id="207" value="Espera por Thread" style="html=1;verticalLabelPosition=bottom;align=center;labelBackgroundColor=#ffffff;verticalAlign=top;strokeWidth=1;strokeColor=#b85450;shadow=0;dashed=0;shape=mxgraph.ios7.icons.clock;fillColor=#f8cecc;fontFamily=Open Sans;" vertex="1" parent="1">
                    <mxGeometry x="420" y="1390" width="30" height="30" as="geometry"/>
                </mxCell>
                <mxCell id="209" value="Servidor" style="aspect=fixed;pointerEvents=1;shadow=0;dashed=0;html=1;strokeColor=#6c8ebf;labelPosition=center;verticalLabelPosition=bottom;verticalAlign=top;align=center;fillColor=#dae8fc;shape=mxgraph.mscae.enterprise.web_server;fontFamily=Open Sans;" vertex="1" parent="1">
                    <mxGeometry x="539" y="1260" width="78" height="102.63" as="geometry"/>
                </mxCell>
                <mxCell id="210" value="Thread Pool" style="rounded=1;whiteSpace=wrap;html=1;fillColor=#fff2cc;strokeColor=#d6b656;fontFamily=Open Sans;FType=g;labelPosition=center;verticalLabelPosition=bottom;align=center;verticalAlign=top;" vertex="1" parent="1">
                    <mxGeometry x="601.53" y="1100" width="133.18" height="100" as="geometry"/>
                </mxCell>
                <mxCell id="211" value="T1" style="ellipse;whiteSpace=wrap;html=1;aspect=fixed;strokeWidth=1;fontFamily=Open Sans;labelPosition=center;verticalLabelPosition=top;align=center;verticalAlign=bottom;fillColor=#e1d5e7;strokeColor=#9673a6;" vertex="1" parent="1">
                    <mxGeometry x="460" y="1239" width="20" height="20" as="geometry"/>
                </mxCell>
                <mxCell id="212" value="T2" style="ellipse;whiteSpace=wrap;html=1;aspect=fixed;strokeColor=#9673a6;strokeWidth=1;fillColor=#e1d5e7;fontFamily=Open Sans;labelPosition=center;verticalLabelPosition=bottom;align=center;verticalAlign=top;" vertex="1" parent="1">
                    <mxGeometry x="461" y="1289.32" width="20" height="20" as="geometry"/>
                </mxCell>
                <mxCell id="213" value="Cliente X" style="shape=mxgraph.cisco.people.androgenous_person;html=1;dashed=0;fillColor=#d5e8d4;strokeColor=#82b366;strokeWidth=1;verticalLabelPosition=bottom;verticalAlign=top;fontFamily=Open Sans;" vertex="1" parent="1">
                    <mxGeometry x="49" y="1272.32" width="78" height="78" as="geometry"/>
                </mxCell>
                <mxCell id="214" style="edgeStyle=orthogonalEdgeStyle;rounded=0;orthogonalLoop=1;jettySize=auto;html=1;fillColor=#e1d5e7;strokeColor=#9673a6;fontFamily=Open Sans;" edge="1" parent="1">
                    <mxGeometry relative="1" as="geometry">
                        <mxPoint x="149" y="1268.9999999999998" as="sourcePoint"/>
                        <mxPoint x="509" y="1268.9999999999998" as="targetPoint"/>
                    </mxGeometry>
                </mxCell>
                <mxCell id="215" value="REQ 1" style="edgeLabel;html=1;align=center;verticalAlign=middle;resizable=0;points=[];fontFamily=Open Sans;fontColor=#1A1A1A;" vertex="1" connectable="0" parent="214">
                    <mxGeometry x="-0.1111" y="-1" relative="1" as="geometry">
                        <mxPoint as="offset"/>
                    </mxGeometry>
                </mxCell>
                <mxCell id="216" value="DB" style="verticalLabelPosition=bottom;html=1;verticalAlign=top;align=center;strokeColor=#6c8ebf;fillColor=#dae8fc;shape=mxgraph.azure.sql_database;fontFamily=Open Sans;FType=g;" vertex="1" parent="1">
                    <mxGeometry x="729" y="1277.48" width="48.34" height="67.68" as="geometry"/>
                </mxCell>
                <mxCell id="217" style="edgeStyle=orthogonalEdgeStyle;rounded=0;orthogonalLoop=1;jettySize=auto;html=1;fillColor=#e1d5e7;strokeColor=#9673a6;fontFamily=Open Sans;" edge="1" parent="1">
                    <mxGeometry relative="1" as="geometry">
                        <mxPoint x="630" y="1300" as="sourcePoint"/>
                        <mxPoint x="723.1199999999999" y="1300" as="targetPoint"/>
                    </mxGeometry>
                </mxCell>
                <mxCell id="218" value="REQ 1" style="edgeLabel;html=1;align=center;verticalAlign=middle;resizable=0;points=[];fontFamily=Open Sans;fontColor=#1A1A1A;" vertex="1" connectable="0" parent="217">
                    <mxGeometry x="-0.1111" y="-1" relative="1" as="geometry">
                        <mxPoint as="offset"/>
                    </mxGeometry>
                </mxCell>
                <mxCell id="219" style="edgeStyle=orthogonalEdgeStyle;rounded=0;orthogonalLoop=1;jettySize=auto;html=1;fillColor=#e1d5e7;strokeColor=#9673a6;fontFamily=Open Sans;" edge="1" parent="1">
                    <mxGeometry relative="1" as="geometry">
                        <mxPoint x="150" y="1330" as="sourcePoint"/>
                        <mxPoint x="510" y="1330" as="targetPoint"/>
                    </mxGeometry>
                </mxCell>
                <mxCell id="220" value="REQ 2" style="edgeLabel;html=1;align=center;verticalAlign=middle;resizable=0;points=[];fontFamily=Open Sans;fontColor=#1A1A1A;" vertex="1" connectable="0" parent="219">
                    <mxGeometry x="-0.1111" y="-1" relative="1" as="geometry">
                        <mxPoint as="offset"/>
                    </mxGeometry>
                </mxCell>
                <mxCell id="221" style="edgeStyle=orthogonalEdgeStyle;rounded=0;orthogonalLoop=1;jettySize=auto;html=1;fillColor=#e1d5e7;strokeColor=#9673a6;fontFamily=Open Sans;" edge="1" parent="1">
                    <mxGeometry relative="1" as="geometry">
                        <mxPoint x="630" y="1330" as="sourcePoint"/>
                        <mxPoint x="723.1199999999999" y="1330" as="targetPoint"/>
                    </mxGeometry>
                </mxCell>
                <mxCell id="222" value="REQ 2" style="edgeLabel;html=1;align=center;verticalAlign=middle;resizable=0;points=[];fontFamily=Open Sans;fontColor=#1A1A1A;" vertex="1" connectable="0" parent="221">
                    <mxGeometry x="-0.1111" y="-1" relative="1" as="geometry">
                        <mxPoint as="offset"/>
                    </mxGeometry>
                </mxCell>
                <mxCell id="223" style="edgeStyle=orthogonalEdgeStyle;rounded=0;orthogonalLoop=1;jettySize=auto;html=1;fillColor=#f5f5f5;strokeColor=#666666;fontFamily=Open Sans;" edge="1" parent="1">
                    <mxGeometry relative="1" as="geometry">
                        <mxPoint x="150" y="1380" as="sourcePoint"/>
                        <mxPoint x="510" y="1380" as="targetPoint"/>
                    </mxGeometry>
                </mxCell>
                <mxCell id="224" value="REQ 3" style="edgeLabel;html=1;align=center;verticalAlign=middle;resizable=0;points=[];fontFamily=Open Sans;fontColor=#1A1A1A;" vertex="1" connectable="0" parent="223">
                    <mxGeometry x="-0.1111" y="-1" relative="1" as="geometry">
                        <mxPoint as="offset"/>
                    </mxGeometry>
                </mxCell>
                <mxCell id="226" value="Espera por Thread" style="html=1;verticalLabelPosition=bottom;align=center;labelBackgroundColor=#ffffff;verticalAlign=top;strokeWidth=1;strokeColor=#b85450;shadow=0;dashed=0;shape=mxgraph.ios7.icons.clock;fillColor=#f8cecc;fontFamily=Open Sans;" vertex="1" parent="1">
                    <mxGeometry x="421" y="1790" width="30" height="30" as="geometry"/>
                </mxCell>
                <mxCell id="227" value="Servidor" style="aspect=fixed;pointerEvents=1;shadow=0;dashed=0;html=1;strokeColor=#6c8ebf;labelPosition=center;verticalLabelPosition=bottom;verticalAlign=top;align=center;fillColor=#dae8fc;shape=mxgraph.mscae.enterprise.web_server;fontFamily=Open Sans;" vertex="1" parent="1">
                    <mxGeometry x="540" y="1660" width="78" height="102.63" as="geometry"/>
                </mxCell>
                <mxCell id="228" value="Thread Pool" style="rounded=1;whiteSpace=wrap;html=1;fillColor=#fff2cc;strokeColor=#d6b656;fontFamily=Open Sans;FType=g;labelPosition=center;verticalLabelPosition=bottom;align=center;verticalAlign=top;" vertex="1" parent="1">
                    <mxGeometry x="602.53" y="1500" width="133.18" height="100" as="geometry"/>
                </mxCell>
                <mxCell id="229" value="T1" style="ellipse;whiteSpace=wrap;html=1;aspect=fixed;strokeWidth=1;fontFamily=Open Sans;labelPosition=center;verticalLabelPosition=top;align=center;verticalAlign=bottom;fillColor=#e1d5e7;strokeColor=#9673a6;" vertex="1" parent="1">
                    <mxGeometry x="618" y="1520" width="20" height="20" as="geometry"/>
                </mxCell>
                <mxCell id="230" value="T2" style="ellipse;whiteSpace=wrap;html=1;aspect=fixed;strokeColor=#9673a6;strokeWidth=1;fillColor=#e1d5e7;fontFamily=Open Sans;labelPosition=center;verticalLabelPosition=bottom;align=center;verticalAlign=top;" vertex="1" parent="1">
                    <mxGeometry x="462" y="1689.32" width="20" height="20" as="geometry"/>
                </mxCell>
                <mxCell id="231" value="Cliente X" style="shape=mxgraph.cisco.people.androgenous_person;html=1;dashed=0;fillColor=#d5e8d4;strokeColor=#82b366;strokeWidth=1;verticalLabelPosition=bottom;verticalAlign=top;fontFamily=Open Sans;" vertex="1" parent="1">
                    <mxGeometry x="50" y="1672.32" width="78" height="78" as="geometry"/>
                </mxCell>
                <mxCell id="232" style="edgeStyle=orthogonalEdgeStyle;rounded=0;orthogonalLoop=1;jettySize=auto;html=1;fillColor=#f5f5f5;strokeColor=#666666;fontFamily=Open Sans;" edge="1" parent="1">
                    <mxGeometry relative="1" as="geometry">
                        <mxPoint x="150" y="1669" as="sourcePoint"/>
                        <mxPoint x="510" y="1669" as="targetPoint"/>
                    </mxGeometry>
                </mxCell>
                <mxCell id="233" value="REQ 1" style="edgeLabel;html=1;align=center;verticalAlign=middle;resizable=0;points=[];fontFamily=Open Sans;fontColor=#1A1A1A;" vertex="1" connectable="0" parent="232">
                    <mxGeometry x="-0.1111" y="-1" relative="1" as="geometry">
                        <mxPoint as="offset"/>
                    </mxGeometry>
                </mxCell>
                <mxCell id="234" value="DB" style="verticalLabelPosition=bottom;html=1;verticalAlign=top;align=center;strokeColor=#6c8ebf;fillColor=#dae8fc;shape=mxgraph.azure.sql_database;fontFamily=Open Sans;FType=g;" vertex="1" parent="1">
                    <mxGeometry x="730" y="1677.48" width="48.34" height="67.68" as="geometry"/>
                </mxCell>
                <mxCell id="235" style="edgeStyle=orthogonalEdgeStyle;rounded=0;orthogonalLoop=1;jettySize=auto;html=1;fillColor=#f5f5f5;strokeColor=#666666;fontFamily=Open Sans;" edge="1" parent="1">
                    <mxGeometry relative="1" as="geometry">
                        <mxPoint x="631" y="1700" as="sourcePoint"/>
                        <mxPoint x="724.1199999999999" y="1700" as="targetPoint"/>
                    </mxGeometry>
                </mxCell>
                <mxCell id="236" value="REQ 1" style="edgeLabel;html=1;align=center;verticalAlign=middle;resizable=0;points=[];fontFamily=Open Sans;fontColor=#1A1A1A;" vertex="1" connectable="0" parent="235">
                    <mxGeometry x="-0.1111" y="-1" relative="1" as="geometry">
                        <mxPoint as="offset"/>
                    </mxGeometry>
                </mxCell>
                <mxCell id="237" style="edgeStyle=orthogonalEdgeStyle;rounded=0;orthogonalLoop=1;jettySize=auto;html=1;fillColor=#e1d5e7;strokeColor=#9673a6;fontFamily=Open Sans;" edge="1" parent="1">
                    <mxGeometry relative="1" as="geometry">
                        <mxPoint x="151" y="1730" as="sourcePoint"/>
                        <mxPoint x="511" y="1730" as="targetPoint"/>
                    </mxGeometry>
                </mxCell>
                <mxCell id="238" value="REQ 2" style="edgeLabel;html=1;align=center;verticalAlign=middle;resizable=0;points=[];fontFamily=Open Sans;fontColor=#1A1A1A;" vertex="1" connectable="0" parent="237">
                    <mxGeometry x="-0.1111" y="-1" relative="1" as="geometry">
                        <mxPoint as="offset"/>
                    </mxGeometry>
                </mxCell>
                <mxCell id="239" style="edgeStyle=orthogonalEdgeStyle;rounded=0;orthogonalLoop=1;jettySize=auto;html=1;fillColor=#e1d5e7;strokeColor=#9673a6;fontFamily=Open Sans;" edge="1" parent="1">
                    <mxGeometry relative="1" as="geometry">
                        <mxPoint x="631" y="1745.16" as="sourcePoint"/>
                        <mxPoint x="724.1199999999999" y="1745.16" as="targetPoint"/>
                    </mxGeometry>
                </mxCell>
                <mxCell id="240" value="REQ 2" style="edgeLabel;html=1;align=center;verticalAlign=middle;resizable=0;points=[];fontFamily=Open Sans;fontColor=#1A1A1A;" vertex="1" connectable="0" parent="239">
                    <mxGeometry x="-0.1111" y="-1" relative="1" as="geometry">
                        <mxPoint as="offset"/>
                    </mxGeometry>
                </mxCell>
                <mxCell id="241" style="edgeStyle=orthogonalEdgeStyle;rounded=0;orthogonalLoop=1;jettySize=auto;html=1;fillColor=#f5f5f5;strokeColor=#666666;fontFamily=Open Sans;" edge="1" parent="1">
                    <mxGeometry relative="1" as="geometry">
                        <mxPoint x="151" y="1780" as="sourcePoint"/>
                        <mxPoint x="511" y="1780" as="targetPoint"/>
                    </mxGeometry>
                </mxCell>
                <mxCell id="242" value="REQ 3" style="edgeLabel;html=1;align=center;verticalAlign=middle;resizable=0;points=[];fontFamily=Open Sans;fontColor=#1A1A1A;" vertex="1" connectable="0" parent="241">
                    <mxGeometry x="-0.1111" y="-1" relative="1" as="geometry">
                        <mxPoint as="offset"/>
                    </mxGeometry>
                </mxCell>
                <mxCell id="243" style="edgeStyle=orthogonalEdgeStyle;rounded=0;orthogonalLoop=1;jettySize=auto;html=1;fillColor=#f5f5f5;strokeColor=#666666;fontFamily=Open Sans;" edge="1" parent="1">
                    <mxGeometry relative="1" as="geometry">
                        <mxPoint x="510" y="1683.48" as="sourcePoint"/>
                        <mxPoint x="150" y="1683.48" as="targetPoint"/>
                    </mxGeometry>
                </mxCell>
                <mxCell id="245" style="edgeStyle=orthogonalEdgeStyle;rounded=0;orthogonalLoop=1;jettySize=auto;html=1;fillColor=#f5f5f5;strokeColor=#666666;fontFamily=Open Sans;" edge="1" parent="1">
                    <mxGeometry relative="1" as="geometry">
                        <mxPoint x="723.1199999999999" y="1720" as="sourcePoint"/>
                        <mxPoint x="630" y="1720" as="targetPoint"/>
                    </mxGeometry>
                </mxCell>
                <mxCell id="248" value="Servidor" style="aspect=fixed;pointerEvents=1;shadow=0;dashed=0;html=1;strokeColor=#6c8ebf;labelPosition=center;verticalLabelPosition=bottom;verticalAlign=top;align=center;fillColor=#dae8fc;shape=mxgraph.mscae.enterprise.web_server;fontFamily=Open Sans;" vertex="1" parent="1">
                    <mxGeometry x="539" y="2060" width="78" height="102.63" as="geometry"/>
                </mxCell>
                <mxCell id="249" value="Thread Pool" style="rounded=1;whiteSpace=wrap;html=1;fillColor=#fff2cc;strokeColor=#d6b656;fontFamily=Open Sans;FType=g;labelPosition=center;verticalLabelPosition=bottom;align=center;verticalAlign=top;" vertex="1" parent="1">
                    <mxGeometry x="601.53" y="1900" width="133.18" height="100" as="geometry"/>
                </mxCell>
                <mxCell id="250" value="T1" style="ellipse;whiteSpace=wrap;html=1;aspect=fixed;strokeWidth=1;fontFamily=Open Sans;labelPosition=center;verticalLabelPosition=bottom;align=center;verticalAlign=top;fillColor=#e1d5e7;strokeColor=#9673a6;" vertex="1" parent="1">
                    <mxGeometry x="460" y="2110.31" width="20" height="20" as="geometry"/>
                </mxCell>
                <mxCell id="251" value="T2" style="ellipse;whiteSpace=wrap;html=1;aspect=fixed;strokeColor=#9673a6;strokeWidth=1;fillColor=#e1d5e7;fontFamily=Open Sans;labelPosition=center;verticalLabelPosition=bottom;align=center;verticalAlign=top;" vertex="1" parent="1">
                    <mxGeometry x="461" y="2059.9999999999995" width="20" height="20" as="geometry"/>
                </mxCell>
                <mxCell id="252" value="Cliente X" style="shape=mxgraph.cisco.people.androgenous_person;html=1;dashed=0;fillColor=#d5e8d4;strokeColor=#82b366;strokeWidth=1;verticalLabelPosition=bottom;verticalAlign=top;fontFamily=Open Sans;" vertex="1" parent="1">
                    <mxGeometry x="49" y="2072.3199999999997" width="78" height="78" as="geometry"/>
                </mxCell>
                <mxCell id="255" value="DB" style="verticalLabelPosition=bottom;html=1;verticalAlign=top;align=center;strokeColor=#6c8ebf;fillColor=#dae8fc;shape=mxgraph.azure.sql_database;fontFamily=Open Sans;FType=g;" vertex="1" parent="1">
                    <mxGeometry x="729" y="2077.48" width="48.34" height="67.68" as="geometry"/>
                </mxCell>
                <mxCell id="258" style="edgeStyle=orthogonalEdgeStyle;rounded=0;orthogonalLoop=1;jettySize=auto;html=1;fillColor=#e1d5e7;strokeColor=#9673a6;fontFamily=Open Sans;" edge="1" parent="1">
                    <mxGeometry relative="1" as="geometry">
                        <mxPoint x="150" y="2100.68" as="sourcePoint"/>
                        <mxPoint x="510" y="2100.68" as="targetPoint"/>
                    </mxGeometry>
                </mxCell>
                <mxCell id="259" value="REQ 2" style="edgeLabel;html=1;align=center;verticalAlign=middle;resizable=0;points=[];fontFamily=Open Sans;fontColor=#1A1A1A;" vertex="1" connectable="0" parent="258">
                    <mxGeometry x="-0.1111" y="-1" relative="1" as="geometry">
                        <mxPoint as="offset"/>
                    </mxGeometry>
                </mxCell>
                <mxCell id="260" style="edgeStyle=orthogonalEdgeStyle;rounded=0;orthogonalLoop=1;jettySize=auto;html=1;fillColor=#e1d5e7;strokeColor=#9673a6;fontFamily=Open Sans;" edge="1" parent="1">
                    <mxGeometry relative="1" as="geometry">
                        <mxPoint x="630" y="2110" as="sourcePoint"/>
                        <mxPoint x="723.1199999999999" y="2110" as="targetPoint"/>
                    </mxGeometry>
                </mxCell>
                <mxCell id="261" value="REQ 2" style="edgeLabel;html=1;align=center;verticalAlign=middle;resizable=0;points=[];fontFamily=Open Sans;fontColor=#1A1A1A;" vertex="1" connectable="0" parent="260">
                    <mxGeometry x="-0.1111" y="-1" relative="1" as="geometry">
                        <mxPoint as="offset"/>
                    </mxGeometry>
                </mxCell>
                <mxCell id="262" style="edgeStyle=orthogonalEdgeStyle;rounded=0;orthogonalLoop=1;jettySize=auto;html=1;fillColor=#e1d5e7;strokeColor=#9673a6;fontFamily=Open Sans;" edge="1" parent="1">
                    <mxGeometry relative="1" as="geometry">
                        <mxPoint x="150" y="2150.68" as="sourcePoint"/>
                        <mxPoint x="510" y="2150.68" as="targetPoint"/>
                    </mxGeometry>
                </mxCell>
                <mxCell id="263" value="REQ 3" style="edgeLabel;html=1;align=center;verticalAlign=middle;resizable=0;points=[];fontFamily=Open Sans;fontColor=#1A1A1A;" vertex="1" connectable="0" parent="262">
                    <mxGeometry x="-0.1111" y="-1" relative="1" as="geometry">
                        <mxPoint as="offset"/>
                    </mxGeometry>
                </mxCell>
                <mxCell id="266" style="edgeStyle=orthogonalEdgeStyle;rounded=0;orthogonalLoop=1;jettySize=auto;html=1;fillColor=#e1d5e7;strokeColor=#9673a6;fontFamily=Open Sans;" edge="1" parent="1">
                    <mxGeometry relative="1" as="geometry">
                        <mxPoint x="630" y="2140" as="sourcePoint"/>
                        <mxPoint x="723.1199999999999" y="2140" as="targetPoint"/>
                    </mxGeometry>
                </mxCell>
                <mxCell id="267" value="REQ 3" style="edgeLabel;html=1;align=center;verticalAlign=middle;resizable=0;points=[];fontFamily=Open Sans;fontColor=#1A1A1A;" vertex="1" connectable="0" parent="266">
                    <mxGeometry x="-0.1111" y="-1" relative="1" as="geometry">
                        <mxPoint as="offset"/>
                    </mxGeometry>
                </mxCell>
            </root>
        </mxGraphModel>
    </diagram>
</mxfile>